<svg width="1440" height="190" viewBox="0 0 1440 190" fill="none" xmlns="http://www.w3.org/2000/svg">
<rect x="2.5" y="2.5" width="1435" height="185" rx="27.5" fill="white" stroke="#009AA4" stroke-width="5"/>
<line x1="113" y1="5" x2="113" y2="128" stroke="#009AA4" stroke-width="2"/>
<path d="M47.5256 126.551H45.1818V110.188H47.5256V117.048H67V119.69H47.5256V126.551ZM67.3835 103.862C67.3835 104.899 67.1882 105.84 66.7976 106.685C66.3999 107.53 65.8281 108.202 65.0824 108.699C64.3295 109.196 63.4205 109.444 62.3551 109.444C61.4176 109.444 60.6577 109.26 60.0753 108.89C59.4858 108.521 59.0241 108.028 58.6903 107.41C58.3565 106.792 58.108 106.11 57.9446 105.364C57.7741 104.611 57.6392 103.855 57.5398 103.095C57.4119 102.101 57.3161 101.295 57.2521 100.677C57.1811 100.052 57.0639 99.5971 56.9006 99.313C56.7372 99.0218 56.4531 98.8762 56.0483 98.8762H55.9631C54.9119 98.8762 54.0952 99.1639 53.5128 99.7392C52.9304 100.307 52.6392 101.17 52.6392 102.328C52.6392 103.528 52.902 104.469 53.4276 105.151C53.9531 105.833 54.5142 106.312 55.1108 106.589L54.2585 108.976C53.2642 108.55 52.4901 107.981 51.9361 107.271C51.375 106.554 50.9844 105.773 50.7642 104.927C50.5369 104.075 50.4233 103.237 50.4233 102.413C50.4233 101.888 50.4872 101.284 50.6151 100.602C50.7358 99.9132 50.9879 99.2491 51.3714 98.6099C51.755 97.9636 52.3338 97.4274 53.108 97.0012C53.8821 96.5751 54.919 96.362 56.2188 96.362H67V98.8762H64.7841V99.0041C65.1392 99.1745 65.5192 99.4586 65.924 99.8564C66.3288 100.254 66.6733 100.783 66.9574 101.444C67.2415 102.104 67.3835 102.91 67.3835 103.862ZM65.125 103.479C65.125 102.484 64.9297 101.646 64.5391 100.964C64.1484 100.275 63.6442 99.7569 63.0263 99.4089C62.4084 99.0538 61.7585 98.8762 61.0767 98.8762H58.7756C58.9034 98.9828 59.0206 99.2172 59.1271 99.5794C59.2266 99.9345 59.3153 100.346 59.3935 100.815C59.4645 101.277 59.5284 101.728 59.5852 102.168C59.6349 102.601 59.6776 102.953 59.7131 103.223C59.7983 103.876 59.9368 104.487 60.1286 105.055C60.3132 105.616 60.5937 106.071 60.9702 106.419C61.3395 106.76 61.8437 106.93 62.483 106.93C63.3565 106.93 64.017 106.607 64.4645 105.961C64.9048 105.307 65.125 104.48 65.125 103.479ZM63.5909 82.8242L50.6364 77.114V74.7276L67 81.8015V83.8469L50.6364 90.793V88.4492L63.5909 82.8242ZM50.6364 89.2589H67V91.7731H50.6364V89.2589ZM67 76.3896H50.6364V73.8754H67V76.3896ZM44.5 57.1282L46.0341 55.8498C46.517 56.3469 46.8544 56.9222 47.0462 57.5756C47.2379 58.229 47.3551 58.9677 47.3977 59.7915C47.4403 60.6154 47.483 61.5316 47.5256 62.5401C47.5682 63.6765 47.8452 64.6175 48.3565 65.3633C48.8679 66.109 49.6065 66.6843 50.5724 67.0891C51.5384 67.494 52.7244 67.7532 54.1307 67.8668V67.6538C53.108 67.0998 52.3551 66.3327 51.8722 65.3526C51.3892 64.3725 51.1477 63.3214 51.1477 62.1992C51.1477 60.9208 51.446 59.7702 52.0426 58.7475C52.6392 57.7248 53.5234 56.9151 54.6953 56.3185C55.8672 55.7219 57.3125 55.4236 59.0312 55.4236C60.7429 55.4236 62.2202 55.729 63.4631 56.3398C64.706 56.9435 65.6648 57.7923 66.3395 58.886C67.0071 59.9727 67.3409 61.2475 67.3409 62.7106C67.3409 64.1737 66.9964 65.4556 66.3075 66.5565C65.6115 67.6573 64.5817 68.5131 63.218 69.1239C61.8473 69.7347 60.1534 70.0401 58.1364 70.0401H56.3892C52.7457 70.0401 49.983 69.4222 48.1009 68.1864C46.2187 66.9435 45.2457 65.0756 45.1818 62.5827C45.1534 61.7021 45.1463 60.9173 45.1605 60.2283C45.1747 59.5394 45.1428 58.9393 45.0646 58.4279C44.9865 57.9165 44.7983 57.4833 44.5 57.1282ZM65.0824 62.7106C65.0824 61.7234 64.8338 60.8746 64.3366 60.1644C63.8395 59.4471 63.1399 58.8967 62.2379 58.5131C61.3288 58.1296 60.2599 57.9379 59.0312 57.9379C57.8381 57.9379 56.8224 58.1332 55.9844 58.5238C55.1463 58.9073 54.5071 59.4577 54.0668 60.1751C53.6264 60.8924 53.4062 61.7518 53.4062 62.7532C53.4062 63.4847 53.5305 64.1417 53.7791 64.7241C54.0277 65.3065 54.3935 65.8036 54.8764 66.2156C55.3594 66.6275 55.9489 66.9471 56.6449 67.1744C57.3409 67.3945 58.1364 67.5117 59.0312 67.5259C60.8636 67.5259 62.3303 67.0962 63.4311 66.2369C64.532 65.3775 65.0824 64.2021 65.0824 62.7106ZM73.1364 49.9585C73.1364 50.3846 73.1009 50.7646 73.0298 51.0984C72.9659 51.4322 72.902 51.663 72.8381 51.7908L70.6222 51.1516C70.7784 50.5408 70.8352 50.0011 70.7926 49.5323C70.75 49.0636 70.5405 48.6481 70.1641 48.2859C69.7947 47.9165 69.1946 47.5792 68.3636 47.2738L67.0852 46.805L50.6364 52.8562V50.1289L63.6761 45.6119V45.4414L50.6364 40.9244V38.1971L69.3864 45.1431C70.2315 45.4556 70.9311 45.8427 71.4851 46.3043C72.0462 46.766 72.4616 47.3022 72.7315 47.913C73.0014 48.5167 73.1364 49.1985 73.1364 49.9585ZM73.1364 34.8786H50.6364V32.4496H53.2358V32.1513C52.9517 31.9666 52.5895 31.7109 52.1491 31.3842C51.7017 31.0504 51.304 30.5746 50.956 29.9567C50.6009 29.3317 50.4233 28.4865 50.4233 27.4212C50.4233 26.0433 50.7678 24.8288 51.4567 23.7777C52.1456 22.7266 53.1222 21.9062 54.3864 21.3168C55.6506 20.7273 57.142 20.4325 58.8608 20.4325C60.5938 20.4325 62.0959 20.7273 63.3672 21.3168C64.6314 21.9062 65.6115 22.723 66.3075 23.767C66.9964 24.8111 67.3409 26.0149 67.3409 27.3786C67.3409 28.4297 67.1669 29.2713 66.8189 29.9034C66.4638 30.5355 66.0625 31.022 65.6151 31.3629C65.1605 31.7038 64.7841 31.9666 64.4858 32.1513V32.3643H73.1364V34.8786ZM58.8182 32.407C60.054 32.407 61.1442 32.2259 62.0888 31.8636C63.0263 31.5014 63.7614 30.9723 64.294 30.2763C64.8196 29.5803 65.0824 28.728 65.0824 27.7195C65.0824 26.6683 64.8054 25.7912 64.2514 25.0881C63.6903 24.3778 62.9375 23.8452 61.9929 23.4901C61.0412 23.1278 59.983 22.9467 58.8182 22.9467C57.6676 22.9467 56.6307 23.1243 55.7074 23.4794C54.777 23.8274 54.0419 24.3565 53.5021 25.0668C52.9553 25.7699 52.6818 26.6541 52.6818 27.7195C52.6818 28.7422 52.9411 29.6016 53.4595 30.2976C53.9709 30.9936 54.6882 31.5192 55.6115 31.8743C56.5277 32.2294 57.5966 32.407 58.8182 32.407Z" fill="black"/>
<path d="M140.526 125.551H138.182V109.188H140.526V116.048H160V118.69H140.526V125.551ZM166.136 105.706C166.136 106.133 166.101 106.513 166.03 106.846C165.966 107.18 165.902 107.411 165.838 107.539L163.622 106.9C163.778 106.289 163.835 105.749 163.793 105.28C163.75 104.812 163.54 104.396 163.164 104.034C162.795 103.665 162.195 103.327 161.364 103.022L160.085 102.553L143.636 108.604V105.877L156.676 101.36V101.189L143.636 96.6724V93.9451L162.386 100.891C163.232 101.204 163.931 101.591 164.485 102.052C165.046 102.514 165.462 103.05 165.732 103.661C166.001 104.265 166.136 104.947 166.136 105.706ZM160.384 86.3093C160.384 87.3462 160.188 88.2873 159.798 89.1325C159.4 89.9776 158.828 90.6488 158.082 91.146C157.33 91.6431 156.42 91.8917 155.355 91.8917C154.418 91.8917 153.658 91.707 153.075 91.3377C152.486 90.9684 152.024 90.4748 151.69 89.8569C151.357 89.239 151.108 88.5572 150.945 87.8114C150.774 87.0586 150.639 86.3022 150.54 85.5423C150.412 84.5479 150.316 83.7418 150.252 83.1239C150.181 82.4989 150.064 82.0444 149.901 81.7603C149.737 81.4691 149.453 81.3235 149.048 81.3235H148.963C147.912 81.3235 147.095 81.6112 146.513 82.1864C145.93 82.7546 145.639 83.6175 145.639 84.7752C145.639 85.9755 145.902 86.9165 146.428 87.5984C146.953 88.2802 147.514 88.7596 148.111 89.0366L147.259 91.4229C146.264 90.9968 145.49 90.4286 144.936 89.7184C144.375 89.0011 143.984 88.2198 143.764 87.3746C143.537 86.5224 143.423 85.6843 143.423 84.8604C143.423 84.3349 143.487 83.7312 143.615 83.0494C143.736 82.3604 143.988 81.6964 144.371 81.0572C144.755 80.4109 145.334 79.8746 146.108 79.4485C146.882 79.0224 147.919 78.8093 149.219 78.8093H160V81.3235H157.784V81.4513C158.139 81.6218 158.519 81.9059 158.924 82.3036C159.329 82.7013 159.673 83.2305 159.957 83.891C160.241 84.5515 160.384 85.3576 160.384 86.3093ZM158.125 85.9258C158.125 84.9315 157.93 84.0934 157.539 83.4116C157.148 82.7227 156.644 82.2042 156.026 81.8562C155.408 81.5011 154.759 81.3235 154.077 81.3235H151.776C151.903 81.43 152.021 81.6644 152.127 82.0266C152.227 82.3817 152.315 82.7937 152.393 83.2624C152.464 83.7241 152.528 84.1751 152.585 84.6154C152.635 85.0487 152.678 85.4002 152.713 85.6701C152.798 86.3235 152.937 86.9343 153.129 87.5025C153.313 88.0636 153.594 88.5181 153.97 88.8661C154.339 89.207 154.844 89.3775 155.483 89.3775C156.357 89.3775 157.017 89.0543 157.464 88.408C157.905 87.7546 158.125 86.9272 158.125 85.9258ZM160 75.6692H157.656V75.0726C157.656 74.5826 157.56 74.1742 157.369 73.8475C157.17 73.5208 156.825 73.258 156.335 73.0591C155.838 72.8532 155.149 72.6969 154.268 72.5904C153.381 72.4767 152.251 72.3951 150.881 72.3453L143.636 72.0471V61.138H160V63.6522H145.98V69.6607L151.818 69.9164C153.161 69.9732 154.343 70.0939 155.366 70.2786C156.381 70.4561 157.234 70.7296 157.923 71.0989C158.612 71.4611 159.13 71.9441 159.478 72.5478C159.826 73.1515 160 73.9078 160 74.8169V75.6692ZM160.341 49.6642C160.341 51.2409 159.993 52.601 159.297 53.7445C158.594 54.8809 157.614 55.758 156.357 56.3759C155.092 56.9867 153.622 57.2921 151.946 57.2921C150.27 57.2921 148.793 56.9867 147.514 56.3759C146.229 55.758 145.227 54.8986 144.51 53.7978C143.786 52.6898 143.423 51.3972 143.423 49.9199C143.423 49.0676 143.565 48.226 143.849 47.3951C144.134 46.5641 144.595 45.8077 145.234 45.1259C145.866 44.4441 146.705 43.9007 147.749 43.4959C148.793 43.0911 150.078 42.8887 151.605 42.8887H152.67V55.5023H150.497V45.4455C149.574 45.4455 148.75 45.6301 148.026 45.9995C147.301 46.3617 146.729 46.8801 146.31 47.5549C145.891 48.2225 145.682 49.0108 145.682 49.9199C145.682 50.9213 145.93 51.7878 146.428 52.5194C146.918 53.2438 147.557 53.8013 148.345 54.1919C149.134 54.5826 149.979 54.7779 150.881 54.7779H152.33C153.565 54.7779 154.613 54.5648 155.472 54.1387C156.325 53.7054 156.974 53.1053 157.422 52.3382C157.862 51.5712 158.082 50.6799 158.082 49.6642C158.082 49.0037 157.99 48.4071 157.805 47.8745C157.614 47.3347 157.33 46.8695 156.953 46.4789C156.57 46.0882 156.094 45.7864 155.526 45.5733L156.207 43.1444C157.031 43.4 157.756 43.8297 158.381 44.4334C158.999 45.0371 159.482 45.7828 159.83 46.6706C160.17 47.5584 160.341 48.5563 160.341 49.6642ZM145.98 40.5875H143.636V27.2921H145.98V32.6614H160V35.1756H145.98V40.5875Z" fill="black"/>
<path d="M216.455 114.358H231V116.119H218.017V123.449H231V125.21H216.455V114.358ZM235.091 111.032H220.091V109.413H221.824V109.214C221.634 109.091 221.393 108.921 221.099 108.703C220.801 108.48 220.536 108.163 220.304 107.751C220.067 107.334 219.949 106.771 219.949 106.061C219.949 105.142 220.179 104.333 220.638 103.632C221.097 102.931 221.748 102.384 222.591 101.991C223.434 101.598 224.428 101.402 225.574 101.402C226.729 101.402 227.731 101.598 228.578 101.991C229.421 102.384 230.074 102.929 230.538 103.625C230.998 104.321 231.227 105.123 231.227 106.032C231.227 106.733 231.111 107.294 230.879 107.716C230.643 108.137 230.375 108.461 230.077 108.689C229.774 108.916 229.523 109.091 229.324 109.214V109.356H235.091V111.032ZM225.545 109.385C226.369 109.385 227.096 109.264 227.726 109.022C228.351 108.781 228.841 108.428 229.196 107.964C229.546 107.5 229.722 106.932 229.722 106.26C229.722 105.559 229.537 104.974 229.168 104.505C228.794 104.032 228.292 103.677 227.662 103.44C227.027 103.199 226.322 103.078 225.545 103.078C224.778 103.078 224.087 103.196 223.472 103.433C222.851 103.665 222.361 104.018 222.001 104.491C221.637 104.96 221.455 105.549 221.455 106.26C221.455 106.941 221.627 107.514 221.973 107.978C222.314 108.442 222.792 108.793 223.408 109.029C224.018 109.266 224.731 109.385 225.545 109.385ZM231.227 94.413C231.227 95.3978 230.993 96.262 230.524 97.0053C230.055 97.744 229.4 98.3216 228.557 98.7383C227.714 99.1502 226.729 99.3562 225.602 99.3562C224.466 99.3562 223.474 99.1502 222.626 98.7383C221.779 98.3216 221.121 97.744 220.652 97.0053C220.183 96.262 219.949 95.3978 219.949 94.413C219.949 93.4281 220.183 92.5664 220.652 91.8278C221.121 91.0844 221.779 90.5067 222.626 90.0948C223.474 89.6781 224.466 89.4698 225.602 89.4698C226.729 89.4698 227.714 89.6781 228.557 90.0948C229.4 90.5067 230.055 91.0844 230.524 91.8278C230.993 92.5664 231.227 93.4281 231.227 94.413ZM229.722 94.413C229.722 93.6649 229.53 93.0494 229.146 92.5664C228.763 92.0835 228.259 91.726 227.634 91.494C227.009 91.262 226.331 91.146 225.602 91.146C224.873 91.146 224.194 91.262 223.564 91.494C222.934 91.726 222.425 92.0835 222.037 92.5664C221.649 93.0494 221.455 93.6649 221.455 94.413C221.455 95.1611 221.649 95.7766 222.037 96.2596C222.425 96.7425 222.934 97.1 223.564 97.332C224.194 97.564 224.873 97.68 225.602 97.68C226.331 97.68 227.009 97.564 227.634 97.332C228.259 97.1 228.763 96.7425 229.146 96.2596C229.53 95.7766 229.722 95.1611 229.722 94.413ZM231 86.9112H220.091V82.451C220.091 81.2768 220.356 80.344 220.886 79.6527C221.417 78.9614 222.117 78.6158 222.989 78.6158C223.652 78.6158 224.165 78.8123 224.53 79.2053C224.89 79.5982 225.134 80.1025 225.261 80.718C225.318 80.3156 225.46 79.925 225.688 79.5462C225.915 79.1626 226.227 78.8454 226.625 78.5945C227.018 78.3435 227.501 78.218 228.074 78.218C228.633 78.218 229.132 78.3601 229.572 78.6442C230.013 78.9283 230.361 79.3355 230.616 79.8658C230.872 80.3961 231 81.0305 231 81.7692V86.9112ZM229.466 85.3203V81.7692C229.466 81.1915 229.329 80.7393 229.054 80.4126C228.779 80.0859 228.405 79.9226 227.932 79.9226C227.368 79.9226 226.926 80.0859 226.604 80.4126C226.277 80.7393 226.114 81.1915 226.114 81.7692V85.3203H229.466ZM224.665 85.3203V82.451C224.665 82.0012 224.603 81.6153 224.48 81.2933C224.352 80.9714 224.172 80.7251 223.94 80.5547C223.704 80.3795 223.424 80.2919 223.102 80.2919C222.643 80.2919 222.283 80.4837 222.023 80.8672C221.758 81.2507 221.625 81.7786 221.625 82.451V85.3203H224.665ZM231.227 71.2489C231.227 72.2338 230.993 73.0979 230.524 73.8413C230.055 74.5799 229.4 75.1576 228.557 75.5742C227.714 75.9862 226.729 76.1921 225.602 76.1921C224.466 76.1921 223.474 75.9862 222.626 75.5742C221.779 75.1576 221.121 74.5799 220.652 73.8413C220.183 73.0979 219.949 72.2338 219.949 71.2489C219.949 70.2641 220.183 69.4023 220.652 68.6637C221.121 67.9203 221.779 67.3427 222.626 66.9308C223.474 66.5141 224.466 66.3058 225.602 66.3058C226.729 66.3058 227.714 66.5141 228.557 66.9308C229.4 67.3427 230.055 67.9203 230.524 68.6637C230.993 69.4023 231.227 70.2641 231.227 71.2489ZM229.722 71.2489C229.722 70.5008 229.53 69.8853 229.146 69.4023C228.763 68.9194 228.259 68.5619 227.634 68.3299C227.009 68.0979 226.331 67.9819 225.602 67.9819C224.873 67.9819 224.194 68.0979 223.564 68.3299C222.934 68.5619 222.425 68.9194 222.037 69.4023C221.649 69.8853 221.455 70.5008 221.455 71.2489C221.455 71.997 221.649 72.6126 222.037 73.0955C222.425 73.5785 222.934 73.936 223.564 74.168C224.194 74.4 224.873 74.516 225.602 74.516C226.331 74.516 227.009 74.4 227.634 74.168C228.259 73.936 228.763 73.5785 229.146 73.0955C229.53 72.6126 229.722 71.997 229.722 71.2489ZM234.125 64.9119H229.438V64.0028C229.205 63.7803 228.955 63.5885 228.685 63.4276C228.415 63.2666 228.095 63.1269 227.726 63.0085C227.352 62.8854 226.897 62.7812 226.362 62.696C225.822 62.6108 225.171 62.535 224.409 62.4688L220.091 62.0994V55.1676H229.438V53.4915H234.125V55.1676H231V63.2358H234.125V64.9119ZM229.438 62.0994V56.8438H221.653V60.5369L224.409 60.821C225.55 60.9394 226.547 61.0862 227.399 61.2614C228.251 61.4366 228.931 61.7159 229.438 62.0994ZM224.778 43.9656H226.341V49.9883H224.778V43.9656ZM220.091 49.5906H231V51.2667H220.091V49.5906ZM220.091 42.6871H231V44.3633H220.091V42.6871ZM228.528 37.9499L220.091 32.6942V30.7624H231V32.4386H222.562L231 37.6658V39.6261H220.091V37.9499H228.528ZM231 27.6925H220.091V26.0163H224.835V24.9084L220.091 20.9879V18.8288L225.347 23.2322L231 18.772V20.9311L226.398 24.5107V26.0163H231V27.6925Z" fill="black"/>
<line x1="188" y1="5" x2="188" y2="128" stroke="#009AA4" stroke-width="2"/>
<line x1="1252" y1="4" x2="1252" y2="127" stroke="#009AA4" stroke-width="2"/>
<path d="M1279.53 124.551H1277.18V108.188H1279.53V115.048H1299V117.69H1279.53V124.551ZM1299.38 101.862C1299.38 102.899 1299.19 103.84 1298.8 104.685C1298.4 105.53 1297.83 106.202 1297.08 106.699C1296.33 107.196 1295.42 107.444 1294.36 107.444C1293.42 107.444 1292.66 107.26 1292.08 106.89C1291.49 106.521 1291.02 106.028 1290.69 105.41C1290.36 104.792 1290.11 104.11 1289.94 103.364C1289.77 102.611 1289.64 101.855 1289.54 101.095C1289.41 100.101 1289.32 99.2946 1289.25 98.6767C1289.18 98.0517 1289.06 97.5971 1288.9 97.313C1288.74 97.0218 1288.45 96.8762 1288.05 96.8762H1287.96C1286.91 96.8762 1286.1 97.1639 1285.51 97.7392C1284.93 98.3074 1284.64 99.1703 1284.64 100.328C1284.64 101.528 1284.9 102.469 1285.43 103.151C1285.95 103.833 1286.51 104.312 1287.11 104.589L1286.26 106.976C1285.26 106.55 1284.49 105.981 1283.94 105.271C1283.37 104.554 1282.98 103.773 1282.76 102.927C1282.54 102.075 1282.42 101.237 1282.42 100.413C1282.42 99.8876 1282.49 99.2839 1282.62 98.6021C1282.74 97.9132 1282.99 97.2491 1283.37 96.6099C1283.75 95.9636 1284.33 95.4274 1285.11 95.0012C1285.88 94.5751 1286.92 94.362 1288.22 94.362H1299V96.8762H1296.78V97.0041C1297.14 97.1745 1297.52 97.4586 1297.92 97.8564C1298.33 98.2541 1298.67 98.7832 1298.96 99.4437C1299.24 100.104 1299.38 100.91 1299.38 101.862ZM1297.12 101.479C1297.12 100.484 1296.93 99.6461 1296.54 98.9643C1296.15 98.2754 1295.64 97.7569 1295.03 97.4089C1294.41 97.0538 1293.76 96.8762 1293.08 96.8762H1290.78C1290.9 96.9828 1291.02 97.2172 1291.13 97.5794C1291.23 97.9345 1291.32 98.3464 1291.39 98.8152C1291.46 99.2768 1291.53 99.7278 1291.59 100.168C1291.63 100.601 1291.68 100.953 1291.71 101.223C1291.8 101.876 1291.94 102.487 1292.13 103.055C1292.31 103.616 1292.59 104.071 1292.97 104.419C1293.34 104.76 1293.84 104.93 1294.48 104.93C1295.36 104.93 1296.02 104.607 1296.46 103.961C1296.9 103.307 1297.12 102.48 1297.12 101.479ZM1295.59 80.8242L1282.64 75.114V72.7276L1299 79.8015V81.8469L1282.64 88.793V86.4492L1295.59 80.8242ZM1282.64 87.2589H1299V89.7731H1282.64V87.2589ZM1299 74.3896H1282.64V71.8754H1299V74.3896ZM1276.5 55.1282L1278.03 53.8498C1278.52 54.3469 1278.85 54.9222 1279.05 55.5756C1279.24 56.229 1279.36 56.9677 1279.4 57.7915C1279.44 58.6154 1279.48 59.5316 1279.53 60.5401C1279.57 61.6765 1279.85 62.6175 1280.36 63.3633C1280.87 64.109 1281.61 64.6843 1282.57 65.0891C1283.54 65.494 1284.72 65.7532 1286.13 65.8668V65.6538C1285.11 65.0998 1284.36 64.3327 1283.87 63.3526C1283.39 62.3725 1283.15 61.3214 1283.15 60.1992C1283.15 58.9208 1283.45 57.7702 1284.04 56.7475C1284.64 55.7248 1285.52 54.9151 1286.7 54.3185C1287.87 53.7219 1289.31 53.4236 1291.03 53.4236C1292.74 53.4236 1294.22 53.729 1295.46 54.3398C1296.71 54.9435 1297.66 55.7923 1298.34 56.886C1299.01 57.9727 1299.34 59.2475 1299.34 60.7106C1299.34 62.1737 1299 63.4556 1298.31 64.5565C1297.61 65.6573 1296.58 66.5131 1295.22 67.1239C1293.85 67.7347 1292.15 68.0401 1290.14 68.0401H1288.39C1284.75 68.0401 1281.98 67.4222 1280.1 66.1864C1278.22 64.9435 1277.25 63.0756 1277.18 60.5827C1277.15 59.7021 1277.15 58.9173 1277.16 58.2283C1277.17 57.5394 1277.14 56.9393 1277.06 56.4279C1276.99 55.9165 1276.8 55.4833 1276.5 55.1282ZM1297.08 60.7106C1297.08 59.7234 1296.83 58.8746 1296.34 58.1644C1295.84 57.4471 1295.14 56.8967 1294.24 56.5131C1293.33 56.1296 1292.26 55.9379 1291.03 55.9379C1289.84 55.9379 1288.82 56.1332 1287.98 56.5238C1287.15 56.9073 1286.51 57.4577 1286.07 58.1751C1285.63 58.8924 1285.41 59.7518 1285.41 60.7532C1285.41 61.4847 1285.53 62.1417 1285.78 62.7241C1286.03 63.3065 1286.39 63.8036 1286.88 64.2156C1287.36 64.6275 1287.95 64.9471 1288.64 65.1744C1289.34 65.3945 1290.14 65.5117 1291.03 65.5259C1292.86 65.5259 1294.33 65.0962 1295.43 64.2369C1296.53 63.3775 1297.08 62.2021 1297.08 60.7106ZM1305.14 47.9585C1305.14 48.3846 1305.1 48.7646 1305.03 49.0984C1304.97 49.4322 1304.9 49.663 1304.84 49.7908L1302.62 49.1516C1302.78 48.5408 1302.84 48.0011 1302.79 47.5323C1302.75 47.0636 1302.54 46.6481 1302.16 46.2859C1301.79 45.9165 1301.19 45.5792 1300.36 45.2738L1299.09 44.805L1282.64 50.8562V48.1289L1295.68 43.6119V43.4414L1282.64 38.9244V36.1971L1301.39 43.1431C1302.23 43.4556 1302.93 43.8427 1303.49 44.3043C1304.05 44.766 1304.46 45.3022 1304.73 45.913C1305 46.5167 1305.14 47.1985 1305.14 47.9585ZM1305.14 32.8786H1282.64V30.4496H1285.24V30.1513C1284.95 29.9666 1284.59 29.7109 1284.15 29.3842C1283.7 29.0504 1283.3 28.5746 1282.96 27.9567C1282.6 27.3317 1282.42 26.4865 1282.42 25.4212C1282.42 24.0433 1282.77 22.8288 1283.46 21.7777C1284.15 20.7266 1285.12 19.9062 1286.39 19.3168C1287.65 18.7273 1289.14 18.4325 1290.86 18.4325C1292.59 18.4325 1294.1 18.7273 1295.37 19.3168C1296.63 19.9062 1297.61 20.723 1298.31 21.767C1299 22.8111 1299.34 24.0149 1299.34 25.3786C1299.34 26.4297 1299.17 27.2713 1298.82 27.9034C1298.46 28.5355 1298.06 29.022 1297.62 29.3629C1297.16 29.7038 1296.78 29.9666 1296.49 30.1513V30.3643H1305.14V32.8786ZM1290.82 30.407C1292.05 30.407 1293.14 30.2259 1294.09 29.8636C1295.03 29.5014 1295.76 28.9723 1296.29 28.2763C1296.82 27.5803 1297.08 26.728 1297.08 25.7195C1297.08 24.6683 1296.81 23.7912 1296.25 23.0881C1295.69 22.3778 1294.94 21.8452 1293.99 21.4901C1293.04 21.1278 1291.98 20.9467 1290.82 20.9467C1289.67 20.9467 1288.63 21.1243 1287.71 21.4794C1286.78 21.8274 1286.04 22.3565 1285.5 23.0668C1284.96 23.7699 1284.68 24.6541 1284.68 25.7195C1284.68 26.7422 1284.94 27.6016 1285.46 28.2976C1285.97 28.9936 1286.69 29.5192 1287.61 29.8743C1288.53 30.2294 1289.6 30.407 1290.82 30.407Z" fill="black"/>
<path d="M1184.53 121.551H1182.18V105.188H1184.53V112.048H1204V114.69H1184.53V121.551ZM1210.14 101.706C1210.14 102.133 1210.1 102.513 1210.03 102.846C1209.97 103.18 1209.9 103.411 1209.84 103.539L1207.62 102.9C1207.78 102.289 1207.84 101.749 1207.79 101.28C1207.75 100.812 1207.54 100.396 1207.16 100.034C1206.79 99.6646 1206.19 99.3272 1205.36 99.0218L1204.09 98.5531L1187.64 104.604V101.877L1200.68 97.3599V97.1895L1187.64 92.6724V89.9451L1206.39 96.8912C1207.23 97.2037 1207.93 97.5907 1208.49 98.0524C1209.05 98.514 1209.46 99.0502 1209.73 99.661C1210 100.265 1210.14 100.947 1210.14 101.706ZM1204.38 82.3093C1204.38 83.3462 1204.19 84.2873 1203.8 85.1325C1203.4 85.9776 1202.83 86.6488 1202.08 87.146C1201.33 87.6431 1200.42 87.8917 1199.36 87.8917C1198.42 87.8917 1197.66 87.707 1197.08 87.3377C1196.49 86.9684 1196.02 86.4748 1195.69 85.8569C1195.36 85.239 1195.11 84.5572 1194.94 83.8114C1194.77 83.0586 1194.64 82.3022 1194.54 81.5423C1194.41 80.5479 1194.32 79.7418 1194.25 79.1239C1194.18 78.4989 1194.06 78.0444 1193.9 77.7603C1193.74 77.4691 1193.45 77.3235 1193.05 77.3235H1192.96C1191.91 77.3235 1191.1 77.6112 1190.51 78.1864C1189.93 78.7546 1189.64 79.6175 1189.64 80.7752C1189.64 81.9755 1189.9 82.9165 1190.43 83.5984C1190.95 84.2802 1191.51 84.7596 1192.11 85.0366L1191.26 87.4229C1190.26 86.9968 1189.49 86.4286 1188.94 85.7184C1188.37 85.0011 1187.98 84.2198 1187.76 83.3746C1187.54 82.5224 1187.42 81.6843 1187.42 80.8604C1187.42 80.3349 1187.49 79.7312 1187.62 79.0494C1187.74 78.3604 1187.99 77.6964 1188.37 77.0572C1188.75 76.4109 1189.33 75.8746 1190.11 75.4485C1190.88 75.0224 1191.92 74.8093 1193.22 74.8093H1204V77.3235H1201.78V77.4513C1202.14 77.6218 1202.52 77.9059 1202.92 78.3036C1203.33 78.7013 1203.67 79.2305 1203.96 79.891C1204.24 80.5515 1204.38 81.3576 1204.38 82.3093ZM1202.12 81.9258C1202.12 80.9315 1201.93 80.0934 1201.54 79.4116C1201.15 78.7227 1200.64 78.2042 1200.03 77.8562C1199.41 77.5011 1198.76 77.3235 1198.08 77.3235H1195.78C1195.9 77.43 1196.02 77.6644 1196.13 78.0266C1196.23 78.3817 1196.32 78.7937 1196.39 79.2624C1196.46 79.7241 1196.53 80.1751 1196.59 80.6154C1196.63 81.0487 1196.68 81.4002 1196.71 81.6701C1196.8 82.3235 1196.94 82.9343 1197.13 83.5025C1197.31 84.0636 1197.59 84.5181 1197.97 84.8661C1198.34 85.207 1198.84 85.3775 1199.48 85.3775C1200.36 85.3775 1201.02 85.0543 1201.46 84.408C1201.9 83.7546 1202.12 82.9272 1202.12 81.9258ZM1204 71.6692H1201.66V71.0726C1201.66 70.5826 1201.56 70.1742 1201.37 69.8475C1201.17 69.5208 1200.83 69.258 1200.34 69.0591C1199.84 68.8532 1199.15 68.6969 1198.27 68.5904C1197.38 68.4767 1196.25 68.3951 1194.88 68.3453L1187.64 68.0471V57.138H1204V59.6522H1189.98V65.6607L1195.82 65.9164C1197.16 65.9732 1198.34 66.0939 1199.37 66.2786C1200.38 66.4561 1201.23 66.7296 1201.92 67.0989C1202.61 67.4611 1203.13 67.9441 1203.48 68.5478C1203.83 69.1515 1204 69.9078 1204 70.8169V71.6692ZM1204.34 45.6642C1204.34 47.2409 1203.99 48.601 1203.3 49.7445C1202.59 50.8809 1201.61 51.758 1200.36 52.3759C1199.09 52.9867 1197.62 53.2921 1195.95 53.2921C1194.27 53.2921 1192.79 52.9867 1191.51 52.3759C1190.23 51.758 1189.23 50.8986 1188.51 49.7978C1187.79 48.6898 1187.42 47.3972 1187.42 45.9199C1187.42 45.0676 1187.57 44.226 1187.85 43.3951C1188.13 42.5641 1188.6 41.8077 1189.23 41.1259C1189.87 40.4441 1190.7 39.9007 1191.75 39.4959C1192.79 39.0911 1194.08 38.8887 1195.61 38.8887H1196.67V51.5023H1194.5V41.4455C1193.57 41.4455 1192.75 41.6301 1192.03 41.9995C1191.3 42.3617 1190.73 42.8801 1190.31 43.5549C1189.89 44.2225 1189.68 45.0108 1189.68 45.9199C1189.68 46.9213 1189.93 47.7878 1190.43 48.5194C1190.92 49.2438 1191.56 49.8013 1192.35 50.1919C1193.13 50.5826 1193.98 50.7779 1194.88 50.7779H1196.33C1197.57 50.7779 1198.61 50.5648 1199.47 50.1387C1200.32 49.7054 1200.97 49.1053 1201.42 48.3382C1201.86 47.5712 1202.08 46.6799 1202.08 45.6642C1202.08 45.0037 1201.99 44.4071 1201.81 43.8745C1201.61 43.3347 1201.33 42.8695 1200.95 42.4789C1200.57 42.0882 1200.09 41.7864 1199.53 41.5733L1200.21 39.1444C1201.03 39.4 1201.76 39.8297 1202.38 40.4334C1203 41.0371 1203.48 41.7828 1203.83 42.6706C1204.17 43.5584 1204.34 44.5563 1204.34 45.6642ZM1189.98 36.5875H1187.64V23.2921H1189.98V28.6614H1204V31.1756H1189.98V36.5875Z" fill="black"/>
<path d="M683.963 143.182V165H681.321V145.526H670.327V165H667.685V143.182H683.963ZM688.952 171.136V148.636H691.381V151.236H691.679C691.863 150.952 692.119 150.589 692.446 150.149C692.78 149.702 693.256 149.304 693.873 148.956C694.498 148.601 695.344 148.423 696.409 148.423C697.787 148.423 699.001 148.768 700.052 149.457C701.104 150.146 701.924 151.122 702.513 152.386C703.103 153.651 703.398 155.142 703.398 156.861C703.398 158.594 703.103 160.096 702.513 161.367C701.924 162.631 701.107 163.612 700.063 164.308C699.019 164.996 697.815 165.341 696.452 165.341C695.4 165.341 694.559 165.167 693.927 164.819C693.295 164.464 692.808 164.062 692.467 163.615C692.126 163.161 691.863 162.784 691.679 162.486H691.466V171.136H688.952ZM691.423 156.818C691.423 158.054 691.604 159.144 691.966 160.089C692.329 161.026 692.858 161.761 693.554 162.294C694.25 162.82 695.102 163.082 696.111 163.082C697.162 163.082 698.039 162.805 698.742 162.251C699.452 161.69 699.985 160.937 700.34 159.993C700.702 159.041 700.883 157.983 700.883 156.818C700.883 155.668 700.706 154.631 700.351 153.707C700.003 152.777 699.474 152.042 698.763 151.502C698.06 150.955 697.176 150.682 696.111 150.682C695.088 150.682 694.229 150.941 693.532 151.46C692.836 151.971 692.311 152.688 691.956 153.612C691.601 154.528 691.423 155.597 691.423 156.818ZM713.881 165.341C712.403 165.341 711.107 164.989 709.992 164.286C708.884 163.583 708.018 162.599 707.393 161.335C706.775 160.071 706.466 158.594 706.466 156.903C706.466 155.199 706.775 153.711 707.393 152.44C708.018 151.168 708.884 150.181 709.992 149.478C711.107 148.775 712.403 148.423 713.881 148.423C715.358 148.423 716.65 148.775 717.758 149.478C718.873 150.181 719.74 151.168 720.358 152.44C720.983 153.711 721.295 155.199 721.295 156.903C721.295 158.594 720.983 160.071 720.358 161.335C719.74 162.599 718.873 163.583 717.758 164.286C716.65 164.989 715.358 165.341 713.881 165.341ZM713.881 163.082C715.003 163.082 715.926 162.795 716.65 162.219C717.375 161.644 717.911 160.888 718.259 159.95C718.607 159.013 718.781 157.997 718.781 156.903C718.781 155.81 718.607 154.79 718.259 153.846C717.911 152.901 717.375 152.138 716.65 151.555C715.926 150.973 715.003 150.682 713.881 150.682C712.758 150.682 711.835 150.973 711.111 151.555C710.386 152.138 709.85 152.901 709.502 153.846C709.154 154.79 708.98 155.81 708.98 156.903C708.98 157.997 709.154 159.013 709.502 159.95C709.85 160.888 710.386 161.644 711.111 162.219C711.835 162.795 712.758 163.082 713.881 163.082ZM726.334 148.636L730.255 155.327L734.175 148.636H737.073L731.789 156.818L737.073 165H734.175L730.255 158.651L726.334 165H723.437L728.635 156.818L723.437 148.636H726.334ZM746.634 165.341C745.157 165.341 743.861 164.989 742.746 164.286C741.638 163.583 740.771 162.599 740.146 161.335C739.529 160.071 739.22 158.594 739.22 156.903C739.22 155.199 739.529 153.711 740.146 152.44C740.771 151.168 741.638 150.181 742.746 149.478C743.861 148.775 745.157 148.423 746.634 148.423C748.112 148.423 749.404 148.775 750.512 149.478C751.627 150.181 752.494 151.168 753.112 152.44C753.737 153.711 754.049 155.199 754.049 156.903C754.049 158.594 753.737 160.071 753.112 161.335C752.494 162.599 751.627 163.583 750.512 164.286C749.404 164.989 748.112 165.341 746.634 165.341ZM746.634 163.082C747.757 163.082 748.68 162.795 749.404 162.219C750.129 161.644 750.665 160.888 751.013 159.95C751.361 159.013 751.535 157.997 751.535 156.903C751.535 155.81 751.361 154.79 751.013 153.846C750.665 152.901 750.129 152.138 749.404 151.555C748.68 150.973 747.757 150.682 746.634 150.682C745.512 150.682 744.589 150.973 743.865 151.555C743.14 152.138 742.604 152.901 742.256 153.846C741.908 154.79 741.734 155.81 741.734 156.903C741.734 157.997 741.908 159.013 742.256 159.95C742.604 160.888 743.14 161.644 743.865 162.219C744.589 162.795 745.512 163.082 746.634 163.082ZM756.14 169.688V162.656H757.504C757.837 162.308 758.125 161.932 758.366 161.527C758.608 161.122 758.817 160.643 758.995 160.089C759.18 159.528 759.336 158.846 759.464 158.043C759.592 157.234 759.705 156.257 759.805 155.114L760.359 148.636H770.756V162.656H773.271V169.688H770.756V165H758.654V169.688H756.14ZM760.359 162.656H768.242V150.98H762.702L762.276 155.114C762.099 156.825 761.879 158.32 761.616 159.599C761.353 160.877 760.934 161.896 760.359 162.656Z" fill="#BEBEBE"/>
<path d="M1374.53 125.551H1372.18V109.188H1374.53V116.048H1394V118.69H1374.53V125.551ZM1394.38 102.862C1394.38 103.899 1394.19 104.84 1393.8 105.685C1393.4 106.53 1392.83 107.202 1392.08 107.699C1391.33 108.196 1390.42 108.444 1389.36 108.444C1388.42 108.444 1387.66 108.26 1387.08 107.89C1386.49 107.521 1386.02 107.028 1385.69 106.41C1385.36 105.792 1385.11 105.11 1384.94 104.364C1384.77 103.611 1384.64 102.855 1384.54 102.095C1384.41 101.101 1384.32 100.295 1384.25 99.6767C1384.18 99.0517 1384.06 98.5971 1383.9 98.313C1383.74 98.0218 1383.45 97.8762 1383.05 97.8762H1382.96C1381.91 97.8762 1381.1 98.1639 1380.51 98.7392C1379.93 99.3074 1379.64 100.17 1379.64 101.328C1379.64 102.528 1379.9 103.469 1380.43 104.151C1380.95 104.833 1381.51 105.312 1382.11 105.589L1381.26 107.976C1380.26 107.55 1379.49 106.981 1378.94 106.271C1378.37 105.554 1377.98 104.773 1377.76 103.927C1377.54 103.075 1377.42 102.237 1377.42 101.413C1377.42 100.888 1377.49 100.284 1377.62 99.6021C1377.74 98.9132 1377.99 98.2491 1378.37 97.6099C1378.75 96.9636 1379.33 96.4274 1380.11 96.0012C1380.88 95.5751 1381.92 95.362 1383.22 95.362H1394V97.8762H1391.78V98.0041C1392.14 98.1745 1392.52 98.4586 1392.92 98.8564C1393.33 99.2541 1393.67 99.7832 1393.96 100.444C1394.24 101.104 1394.38 101.91 1394.38 102.862ZM1392.12 102.479C1392.12 101.484 1391.93 100.646 1391.54 99.9643C1391.15 99.2754 1390.64 98.7569 1390.03 98.4089C1389.41 98.0538 1388.76 97.8762 1388.08 97.8762H1385.78C1385.9 97.9828 1386.02 98.2172 1386.13 98.5794C1386.23 98.9345 1386.32 99.3464 1386.39 99.8152C1386.46 100.277 1386.53 100.728 1386.59 101.168C1386.63 101.601 1386.68 101.953 1386.71 102.223C1386.8 102.876 1386.94 103.487 1387.13 104.055C1387.31 104.616 1387.59 105.071 1387.97 105.419C1388.34 105.76 1388.84 105.93 1389.48 105.93C1390.36 105.93 1391.02 105.607 1391.46 104.961C1391.9 104.307 1392.12 103.48 1392.12 102.479ZM1390.59 81.8242L1377.64 76.114V73.7276L1394 80.8015V82.8469L1377.64 89.793V87.4492L1390.59 81.8242ZM1377.64 88.2589H1394V90.7731H1377.64V88.2589ZM1394 75.3896H1377.64V72.8754H1394V75.3896ZM1371.5 56.1282L1373.03 54.8498C1373.52 55.3469 1373.85 55.9222 1374.05 56.5756C1374.24 57.229 1374.36 57.9677 1374.4 58.7915C1374.44 59.6154 1374.48 60.5316 1374.53 61.5401C1374.57 62.6765 1374.85 63.6175 1375.36 64.3633C1375.87 65.109 1376.61 65.6843 1377.57 66.0891C1378.54 66.494 1379.72 66.7532 1381.13 66.8668V66.6538C1380.11 66.0998 1379.36 65.3327 1378.87 64.3526C1378.39 63.3725 1378.15 62.3214 1378.15 61.1992C1378.15 59.9208 1378.45 58.7702 1379.04 57.7475C1379.64 56.7248 1380.52 55.9151 1381.7 55.3185C1382.87 54.7219 1384.31 54.4236 1386.03 54.4236C1387.74 54.4236 1389.22 54.729 1390.46 55.3398C1391.71 55.9435 1392.66 56.7923 1393.34 57.886C1394.01 58.9727 1394.34 60.2475 1394.34 61.7106C1394.34 63.1737 1394 64.4556 1393.31 65.5565C1392.61 66.6573 1391.58 67.5131 1390.22 68.1239C1388.85 68.7347 1387.15 69.0401 1385.14 69.0401H1383.39C1379.75 69.0401 1376.98 68.4222 1375.1 67.1864C1373.22 65.9435 1372.25 64.0756 1372.18 61.5827C1372.15 60.7021 1372.15 59.9173 1372.16 59.2283C1372.17 58.5394 1372.14 57.9393 1372.06 57.4279C1371.99 56.9165 1371.8 56.4833 1371.5 56.1282ZM1392.08 61.7106C1392.08 60.7234 1391.83 59.8746 1391.34 59.1644C1390.84 58.4471 1390.14 57.8967 1389.24 57.5131C1388.33 57.1296 1387.26 56.9379 1386.03 56.9379C1384.84 56.9379 1383.82 57.1332 1382.98 57.5238C1382.15 57.9073 1381.51 58.4577 1381.07 59.1751C1380.63 59.8924 1380.41 60.7518 1380.41 61.7532C1380.41 62.4847 1380.53 63.1417 1380.78 63.7241C1381.03 64.3065 1381.39 64.8036 1381.88 65.2156C1382.36 65.6275 1382.95 65.9471 1383.64 66.1744C1384.34 66.3945 1385.14 66.5117 1386.03 66.5259C1387.86 66.5259 1389.33 66.0962 1390.43 65.2369C1391.53 64.3775 1392.08 63.2021 1392.08 61.7106ZM1400.14 48.9585C1400.14 49.3846 1400.1 49.7646 1400.03 50.0984C1399.97 50.4322 1399.9 50.663 1399.84 50.7908L1397.62 50.1516C1397.78 49.5408 1397.84 49.0011 1397.79 48.5323C1397.75 48.0636 1397.54 47.6481 1397.16 47.2859C1396.79 46.9165 1396.19 46.5792 1395.36 46.2738L1394.09 45.805L1377.64 51.8562V49.1289L1390.68 44.6119V44.4414L1377.64 39.9244V37.1971L1396.39 44.1431C1397.23 44.4556 1397.93 44.8427 1398.49 45.3043C1399.05 45.766 1399.46 46.3022 1399.73 46.913C1400 47.5167 1400.14 48.1985 1400.14 48.9585ZM1400.14 33.8786H1377.64V31.4496H1380.24V31.1513C1379.95 30.9666 1379.59 30.7109 1379.15 30.3842C1378.7 30.0504 1378.3 29.5746 1377.96 28.9567C1377.6 28.3317 1377.42 27.4865 1377.42 26.4212C1377.42 25.0433 1377.77 23.8288 1378.46 22.7777C1379.15 21.7266 1380.12 20.9062 1381.39 20.3168C1382.65 19.7273 1384.14 19.4325 1385.86 19.4325C1387.59 19.4325 1389.1 19.7273 1390.37 20.3168C1391.63 20.9062 1392.61 21.723 1393.31 22.767C1394 23.8111 1394.34 25.0149 1394.34 26.3786C1394.34 27.4297 1394.17 28.2713 1393.82 28.9034C1393.46 29.5355 1393.06 30.022 1392.62 30.3629C1392.16 30.7038 1391.78 30.9666 1391.49 31.1513V31.3643H1400.14V33.8786ZM1385.82 31.407C1387.05 31.407 1388.14 31.2259 1389.09 30.8636C1390.03 30.5014 1390.76 29.9723 1391.29 29.2763C1391.82 28.5803 1392.08 27.728 1392.08 26.7195C1392.08 25.6683 1391.81 24.7912 1391.25 24.0881C1390.69 23.3778 1389.94 22.8452 1388.99 22.4901C1388.04 22.1278 1386.98 21.9467 1385.82 21.9467C1384.67 21.9467 1383.63 22.1243 1382.71 22.4794C1381.78 22.8274 1381.04 23.3565 1380.5 24.0668C1379.96 24.7699 1379.68 25.6541 1379.68 26.7195C1379.68 27.7422 1379.94 28.6016 1380.46 29.2976C1380.97 29.9936 1381.69 30.5192 1382.61 30.8743C1383.53 31.2294 1384.6 31.407 1385.82 31.407Z" fill="black"/>
<line x1="1327" y1="4" x2="1327" y2="127" stroke="#009AA4" stroke-width="2"/>
<line x1="262" y1="5" x2="262" y2="128" stroke="#009AA4" stroke-width="2"/>
<line x1="359" y1="5" x2="359" y2="128" stroke="#009AA4" stroke-width="2"/>
<line x1="456" y1="5" x2="456" y2="128" stroke="#009AA4" stroke-width="2"/>
<line x1="553" y1="5" x2="553" y2="128" stroke="#009AA4" stroke-width="2"/>
<line x1="650" y1="5" x2="650" y2="128" stroke="#009AA4" stroke-width="2"/>
<line x1="747" y1="5" x2="747" y2="128" stroke="#009AA4" stroke-width="2"/>
<line x1="844" y1="5" x2="844" y2="128" stroke="#009AA4" stroke-width="2"/>
<line x1="941" y1="3" x2="941" y2="126" stroke="#009AA4" stroke-width="2"/>
<line x1="1038" y1="3" x2="1038" y2="126" stroke="#009AA4" stroke-width="2"/>
<line x1="1135" x2="1135" y2="123" stroke="#009AA4" stroke-width="2"/>
<rect x="300" y="5" width="21" height="34" rx="5" fill="#D9D9D9"/>
<path d="M306.111 17H307.222V18.5789H306.111V17ZM308.333 17H309.444V18.5789H308.333V17ZM310.556 17H311.667V18.5789H310.556V17ZM313.889 20.6842H312.778V20.1579C312.778 20.0183 312.719 19.8844 312.615 19.7857C312.511 19.687 312.37 19.6316 312.222 19.6316H305.556C305.408 19.6316 305.267 19.687 305.163 19.7857C305.059 19.8844 305 20.0183 305 20.1579V25.4211C305 25.8398 305.176 26.2414 305.488 26.5375C305.801 26.8336 306.225 27 306.667 27H311.111C311.553 27 311.977 26.8336 312.29 26.5375C312.602 26.2414 312.778 25.8398 312.778 25.4211H313.889C314.502 25.4211 315 24.9489 315 24.3684V21.7368C315 21.1563 314.502 20.6842 313.889 20.6842ZM312.778 24.3684V21.7368H313.889L313.89 24.3684H312.778Z" fill="#868686"/>
<rect x="397" y="5" width="21" height="34" rx="5" fill="#D9D9D9"/>
<path d="M403.111 17H404.222V18.5789H403.111V17ZM405.333 17H406.444V18.5789H405.333V17ZM407.556 17H408.667V18.5789H407.556V17ZM410.889 20.6842H409.778V20.1579C409.778 20.0183 409.719 19.8844 409.615 19.7857C409.511 19.687 409.37 19.6316 409.222 19.6316H402.556C402.408 19.6316 402.267 19.687 402.163 19.7857C402.059 19.8844 402 20.0183 402 20.1579V25.4211C402 25.8398 402.176 26.2414 402.488 26.5375C402.801 26.8336 403.225 27 403.667 27H408.111C408.553 27 408.977 26.8336 409.29 26.5375C409.602 26.2414 409.778 25.8398 409.778 25.4211H410.889C411.502 25.4211 412 24.9489 412 24.3684V21.7368C412 21.1563 411.502 20.6842 410.889 20.6842ZM409.778 24.3684V21.7368H410.889L410.89 24.3684H409.778Z" fill="#868686"/>
<rect x="494" y="5" width="21" height="34" rx="5" fill="#D9D9D9"/>
<path d="M500.111 17H501.222V18.5789H500.111V17ZM502.333 17H503.444V18.5789H502.333V17ZM504.556 17H505.667V18.5789H504.556V17ZM507.889 20.6842H506.778V20.1579C506.778 20.0183 506.719 19.8844 506.615 19.7857C506.511 19.687 506.37 19.6316 506.222 19.6316H499.556C499.408 19.6316 499.267 19.687 499.163 19.7857C499.059 19.8844 499 20.0183 499 20.1579V25.4211C499 25.8398 499.176 26.2414 499.488 26.5375C499.801 26.8336 500.225 27 500.667 27H505.111C505.553 27 505.977 26.8336 506.29 26.5375C506.602 26.2414 506.778 25.8398 506.778 25.4211H507.889C508.502 25.4211 509 24.9489 509 24.3684V21.7368C509 21.1563 508.502 20.6842 507.889 20.6842ZM506.778 24.3684V21.7368H507.889L507.89 24.3684H506.778Z" fill="#868686"/>
<rect x="591" y="5" width="21" height="34" rx="5" fill="#D9D9D9"/>
<path d="M597.111 17H598.222V18.5789H597.111V17ZM599.333 17H600.444V18.5789H599.333V17ZM601.556 17H602.667V18.5789H601.556V17ZM604.889 20.6842H603.778V20.1579C603.778 20.0183 603.719 19.8844 603.615 19.7857C603.511 19.687 603.37 19.6316 603.222 19.6316H596.556C596.408 19.6316 596.267 19.687 596.163 19.7857C596.059 19.8844 596 20.0183 596 20.1579V25.4211C596 25.8398 596.176 26.2414 596.488 26.5375C596.801 26.8336 597.225 27 597.667 27H602.111C602.553 27 602.977 26.8336 603.29 26.5375C603.602 26.2414 603.778 25.8398 603.778 25.4211H604.889C605.502 25.4211 606 24.9489 606 24.3684V21.7368C606 21.1563 605.502 20.6842 604.889 20.6842ZM603.778 24.3684V21.7368H604.889L604.89 24.3684H603.778Z" fill="#868686"/>
<rect x="688" y="5" width="21" height="34" rx="5" fill="#D9D9D9"/>
<path d="M694.111 17H695.222V18.5789H694.111V17ZM696.333 17H697.444V18.5789H696.333V17ZM698.556 17H699.667V18.5789H698.556V17ZM701.889 20.6842H700.778V20.1579C700.778 20.0183 700.719 19.8844 700.615 19.7857C700.511 19.687 700.37 19.6316 700.222 19.6316H693.556C693.408 19.6316 693.267 19.687 693.163 19.7857C693.059 19.8844 693 20.0183 693 20.1579V25.4211C693 25.8398 693.176 26.2414 693.488 26.5375C693.801 26.8336 694.225 27 694.667 27H699.111C699.553 27 699.977 26.8336 700.29 26.5375C700.602 26.2414 700.778 25.8398 700.778 25.4211H701.889C702.502 25.4211 703 24.9489 703 24.3684V21.7368C703 21.1563 702.502 20.6842 701.889 20.6842ZM700.778 24.3684V21.7368H701.889L701.89 24.3684H700.778Z" fill="#868686"/>
<rect x="785" y="5" width="21" height="34" rx="5" fill="#D9D9D9"/>
<path d="M791.111 17H792.222V18.5789H791.111V17ZM793.333 17H794.444V18.5789H793.333V17ZM795.556 17H796.667V18.5789H795.556V17ZM798.889 20.6842H797.778V20.1579C797.778 20.0183 797.719 19.8844 797.615 19.7857C797.511 19.687 797.37 19.6316 797.222 19.6316H790.556C790.408 19.6316 790.267 19.687 790.163 19.7857C790.059 19.8844 790 20.0183 790 20.1579V25.4211C790 25.8398 790.176 26.2414 790.488 26.5375C790.801 26.8336 791.225 27 791.667 27H796.111C796.553 27 796.977 26.8336 797.29 26.5375C797.602 26.2414 797.778 25.8398 797.778 25.4211H798.889C799.502 25.4211 800 24.9489 800 24.3684V21.7368C800 21.1563 799.502 20.6842 798.889 20.6842ZM797.778 24.3684V21.7368H798.889L798.89 24.3684H797.778Z" fill="#868686"/>
<rect x="882" y="5" width="21" height="34" rx="5" fill="#D9D9D9"/>
<path d="M888.111 17H889.222V18.5789H888.111V17ZM890.333 17H891.444V18.5789H890.333V17ZM892.556 17H893.667V18.5789H892.556V17ZM895.889 20.6842H894.778V20.1579C894.778 20.0183 894.719 19.8844 894.615 19.7857C894.511 19.687 894.37 19.6316 894.222 19.6316H887.556C887.408 19.6316 887.267 19.687 887.163 19.7857C887.059 19.8844 887 20.0183 887 20.1579V25.4211C887 25.8398 887.176 26.2414 887.488 26.5375C887.801 26.8336 888.225 27 888.667 27H893.111C893.553 27 893.977 26.8336 894.29 26.5375C894.602 26.2414 894.778 25.8398 894.778 25.4211H895.889C896.502 25.4211 897 24.9489 897 24.3684V21.7368C897 21.1563 896.502 20.6842 895.889 20.6842ZM894.778 24.3684V21.7368H895.889L895.89 24.3684H894.778Z" fill="#868686"/>
<rect x="979" y="5" width="21" height="34" rx="5" fill="#D9D9D9"/>
<path d="M985.111 17H986.222V18.5789H985.111V17ZM987.333 17H988.444V18.5789H987.333V17ZM989.556 17H990.667V18.5789H989.556V17ZM992.889 20.6842H991.778V20.1579C991.778 20.0183 991.719 19.8844 991.615 19.7857C991.511 19.687 991.37 19.6316 991.222 19.6316H984.556C984.408 19.6316 984.267 19.687 984.163 19.7857C984.059 19.8844 984 20.0183 984 20.1579V25.4211C984 25.8398 984.176 26.2414 984.488 26.5375C984.801 26.8336 985.225 27 985.667 27H990.111C990.553 27 990.977 26.8336 991.29 26.5375C991.602 26.2414 991.778 25.8398 991.778 25.4211H992.889C993.502 25.4211 994 24.9489 994 24.3684V21.7368C994 21.1563 993.502 20.6842 992.889 20.6842ZM991.778 24.3684V21.7368H992.889L992.89 24.3684H991.778Z" fill="#868686"/>
<rect x="1076" y="5" width="21" height="34" rx="5" fill="#D9D9D9"/>
<path d="M1082.11 17H1083.22V18.5789H1082.11V17ZM1084.33 17H1085.44V18.5789H1084.33V17ZM1086.56 17H1087.67V18.5789H1086.56V17ZM1089.89 20.6842H1088.78V20.1579C1088.78 20.0183 1088.72 19.8844 1088.62 19.7857C1088.51 19.687 1088.37 19.6316 1088.22 19.6316H1081.56C1081.41 19.6316 1081.27 19.687 1081.16 19.7857C1081.06 19.8844 1081 20.0183 1081 20.1579V25.4211C1081 25.8398 1081.18 26.2414 1081.49 26.5375C1081.8 26.8336 1082.22 27 1082.67 27H1087.11C1087.55 27 1087.98 26.8336 1088.29 26.5375C1088.6 26.2414 1088.78 25.8398 1088.78 25.4211H1089.89C1090.5 25.4211 1091 24.9489 1091 24.3684V21.7368C1091 21.1563 1090.5 20.6842 1089.89 20.6842ZM1088.78 24.3684V21.7368H1089.89L1089.89 24.3684H1088.78Z" fill="#868686"/>
</svg>
